<?xml version="1.0" standalone="no"?>
<!DOCTYPE svg PUBLIC "-//W3C//DTD SVG 20010904//EN"
 "http://www.w3.org/TR/2001/REC-SVG-20010904/DTD/svg10.dtd">
<svg version="1.0" xmlns="http://www.w3.org/2000/svg"
 width="500.000000pt" height="500.000000pt" viewBox="0 0 500.000000 500.000000"
 preserveAspectRatio="xMidYMid meet">

<g transform="translate(0.000000,500.000000) scale(0.100000,-0.100000)"
fill="#000000" stroke="none">
<path d="M2240 3903 c-247 -24 -424 -57 -579 -109 -132 -44 -201 -83 -272
-153 -93 -94 -102 -176 -29 -273 22 -29 38 -58 36 -65 -3 -6 -10 -31 -16 -55
-7 -24 -20 -52 -30 -63 -24 -26 -40 -68 -40 -106 0 -17 -7 -44 -16 -61 -8 -16
-16 -44 -16 -62 0 -92 11 -186 27 -221 10 -22 18 -56 16 -75 -1 -19 7 -60 18
-90 11 -30 20 -51 21 -46 0 4 24 -14 54 -41 127 -117 377 -206 706 -253 210
-30 600 -27 820 5 272 40 519 126 627 217 82 69 77 67 69 34 -28 -117 -214
-234 -476 -301 -575 -148 -1347 -87 -1676 131 -67 44 -103 90 -121 152 l-13
47 4 -40 c2 -22 8 -55 15 -72 6 -18 16 -48 22 -65 6 -18 15 -59 19 -90 4 -31
16 -69 27 -85 14 -20 19 -40 16 -68 -5 -45 31 -111 70 -132 138 -72 242 -108
400 -138 318 -59 825 -60 1131 -1 163 32 300 76 384 124 56 32 53 15 -6 -40
-136 -127 -462 -211 -877 -224 -495 -16 -911 84 -1032 249 -13 17 -23 26 -23
20 0 -6 9 -22 20 -36 11 -14 20 -40 20 -59 0 -18 9 -44 20 -58 11 -14 20 -35
20 -47 0 -12 11 -35 25 -51 14 -17 25 -38 25 -48 0 -11 9 -34 20 -52 11 -18
20 -38 20 -46 0 -7 12 -31 26 -52 15 -21 40 -73 56 -116 25 -66 36 -82 76
-111 93 -68 229 -124 397 -163 65 -15 120 -19 290 -19 246 0 327 15 481 90
128 62 181 112 224 214 19 45 42 89 52 98 10 9 21 32 24 52 4 20 15 47 25 60
11 13 19 32 19 42 0 10 9 33 20 51 11 18 20 41 20 51 0 11 8 31 19 45 10 15
22 41 25 58 4 17 19 42 33 55 14 13 34 42 45 64 10 22 25 51 34 65 9 15 13 40
10 63 -3 28 2 49 20 80 13 23 24 55 24 70 0 15 7 42 16 60 9 17 20 56 25 87
18 120 26 156 37 177 7 12 12 46 12 75 1 29 7 64 15 78 8 14 14 45 15 69 0 24
5 61 11 82 10 31 9 47 -5 88 -9 27 -16 68 -16 91 0 39 -18 88 -45 120 -7 8
-18 39 -24 69 -11 52 -10 56 13 80 46 49 66 94 66 146 -1 216 -311 371 -849
425 -93 9 -536 12 -621 3z m585 -13 c359 -33 626 -108 758 -212 101 -81 82
-187 -50 -269 l-32 -20 -63 32 c-35 17 -74 41 -88 53 -34 31 -251 114 -329
127 -44 7 -79 7 -115 -1 -29 -6 -103 -10 -166 -8 -63 1 -151 -3 -195 -10 -44
-6 -132 -16 -196 -22 -65 -6 -152 -21 -197 -35 -45 -13 -119 -29 -165 -35
-178 -24 -211 -32 -288 -70 -106 -54 -164 -55 -234 -5 -59 42 -70 64 -50 111
44 106 190 217 373 284 88 32 269 65 427 79 145 12 482 13 610 1z m-1462 -362
c13 -99 191 -200 459 -262 368 -84 928 -86 1318 -5 312 65 520 180 520 289 0
30 17 24 29 -11 74 -211 -257 -400 -824 -470 -152 -19 -573 -16 -725 5 -489
67 -810 227 -813 406 -1 43 10 90 22 90 5 0 11 -19 14 -42z m1475 11 c30 -5
87 -6 127 -2 54 4 85 2 121 -11 27 -9 76 -23 109 -32 73 -20 118 -61 113 -101
-3 -24 -7 -28 -33 -27 -44 2 -114 17 -270 60 -139 37 -141 37 -335 38 -263 0
-676 -19 -725 -34 -22 -7 -91 -32 -153 -56 -62 -25 -117 -42 -122 -39 -20 12
-9 35 29 61 55 36 116 52 244 64 62 6 150 22 197 35 130 37 200 46 385 51 93
3 171 7 174 9 4 5 46 0 139 -16z m57 -108 c22 -6 78 -22 125 -36 47 -14 115
-32 152 -40 78 -16 131 -40 108 -49 -45 -17 -212 -49 -349 -67 -124 -17 -212
-22 -431 -22 -293 -1 -434 11 -650 56 -150 31 -146 39 70 119 64 24 204 34
615 44 149 4 272 8 274 10 4 4 14 2 86 -15z m-1400 -178 c383 -230 1231 -282
1790 -111 117 35 208 75 272 118 54 37 56 35 72 -62 14 -85 3 -115 -70 -183
-94 -88 -290 -162 -545 -205 -113 -20 -152 -22 -319 -17 -392 12 -769 94
-1044 229 -127 62 -235 159 -246 220 -7 35 0 62 13 56 4 -2 39 -22 77 -45z
m-135 -101 c0 -25 68 -105 120 -141 154 -108 400 -185 725 -227 161 -20 546
-23 690 -5 438 56 709 181 755 351 l7 25 16 -32 c37 -71 9 -164 -71 -233 -55
-48 -194 -118 -307 -155 -354 -114 -911 -132 -1350 -43 -341 69 -593 212 -619
353 -7 38 9 115 24 115 6 0 10 -4 10 -8z m47 -251 c139 -119 404 -210 753
-257 157 -21 578 -24 725 -6 389 50 685 164 779 301 16 22 33 38 38 35 6 -4 8
-32 6 -65 -5 -76 -41 -127 -133 -191 -162 -113 -436 -189 -784 -219 -173 -14
-520 -7 -667 15 -414 61 -703 180 -801 327 -31 47 -43 132 -23 169 13 23 13
23 36 -22 13 -25 45 -64 71 -87z m-49 -119 c128 -128 414 -232 782 -284 152
-21 673 -18 825 6 333 51 576 145 693 267 50 51 56 35 18 -47 -77 -165 -409
-305 -846 -355 -154 -18 -508 -15 -665 5 -506 65 -827 225 -870 434 -4 17 -4
32 -1 32 3 0 32 -26 64 -58z m44 -162 c470 -378 1829 -368 2231 18 l37 36 0
-34 c0 -173 -298 -329 -755 -397 -172 -25 -642 -25 -805 0 -415 65 -680 181
-754 328 -23 47 -34 99 -21 99 3 0 33 -22 67 -50z m2214 -247 c-31 -128 -200
-236 -481 -308 -121 -31 -267 -52 -460 -66 -462 -32 -1002 75 -1196 238 -43
36 -89 101 -89 125 0 17 4 15 30 -11 246 -246 1123 -338 1733 -181 183 48 346
122 412 190 46 47 60 50 51 13z m-2046 -207 c364 -192 1058 -240 1573 -110
175 44 327 112 394 177 37 35 43 34 36 -6 -9 -45 -85 -120 -163 -161 -177 -93
-404 -144 -752 -168 -374 -25 -796 34 -1034 146 -131 62 -204 134 -204 201 l0
27 41 -35 c22 -20 72 -52 109 -71z m-39 -86 c408 -264 1520 -263 1929 1 69 44
87 42 75 -11 -48 -221 -913 -352 -1570 -238 -310 53 -488 141 -502 247 -3 22
-3 41 0 41 4 0 34 -18 68 -40z m149 -279 c200 -93 511 -138 880 -128 336 10
605 65 785 160 57 30 65 32 65 17 0 -50 -85 -110 -220 -158 -190 -67 -409 -96
-725 -96 -282 0 -495 27 -675 85 -139 46 -240 119 -240 175 l0 25 33 -25 c18
-14 62 -38 97 -55z m93 -126 c429 -143 1201 -118 1522 49 33 17 64 33 69 35
16 7 -6 -44 -31 -70 -132 -142 -754 -220 -1223 -154 -287 40 -520 135 -520
211 0 10 16 5 53 -15 28 -16 87 -41 130 -56z m118 -110 c204 -49 304 -59 599
-59 216 -1 299 3 388 17 158 25 292 61 373 100 38 18 71 31 74 29 13 -13 -32
-66 -78 -92 -117 -68 -326 -113 -610 -131 -363 -24 -780 37 -926 135 -42 29
-75 71 -66 86 2 4 35 -8 72 -26 37 -19 116 -45 174 -59z m-130 -39 c169 -77
377 -108 719 -109 203 0 269 3 385 21 163 25 261 51 352 92 77 35 74 35 66 13
-30 -85 -183 -160 -401 -197 -376 -65 -820 -29 -1058 84 -74 36 -144 94 -144
120 0 14 -2 14 81 -24z m50 -106 c174 -80 377 -114 689 -114 292 0 487 32 647
104 37 17 68 29 70 27 2 -2 -8 -29 -22 -60 -65 -140 -264 -242 -498 -254 -326
-16 -698 70 -873 203 -26 20 -94 124 -81 124 3 0 33 -13 68 -30z"/>
<path d="M2305 3369 c-202 -5 -265 -11 -328 -27 -43 -11 -84 -25 -90 -32 -10
-10 -8 -11 8 -5 11 4 54 16 95 27 130 34 781 42 946 12 22 -4 37 -4 34 -1 -14
16 -211 38 -309 35 -58 -2 -218 -6 -356 -9z"/>
<path d="M1785 3310 c3 -5 8 -10 11 -10 2 0 4 5 4 10 0 6 -5 10 -11 10 -5 0
-7 -4 -4 -10z"/>
<path d="M1965 3290 c-3 -5 -1 -10 4 -10 6 0 11 5 11 10 0 6 -2 10 -4 10 -3 0
-8 -4 -11 -10z"/>
<path d="M2756 3271 c-4 -5 -2 -12 3 -15 5 -4 12 -2 15 3 4 5 2 12 -3 15 -5 4
-12 2 -15 -3z"/>
<path d="M2268 3263 c7 -3 16 -2 19 1 4 3 -2 6 -13 5 -11 0 -14 -3 -6 -6z"/>
<path d="M2328 3253 c12 -2 30 -2 40 0 9 3 -1 5 -23 4 -22 0 -30 -2 -17 -4z"/>
<path d="M2513 3253 c9 -2 25 -2 35 0 9 3 1 5 -18 5 -19 0 -27 -2 -17 -5z"/>
</g>
</svg>
