<?xml version="1.0" encoding="utf-8"?>
<!-- Generator: Adobe Illustrator 16.0.0, SVG Export Plug-In . SVG Version: 6.00 Build 0)  -->
<!DOCTYPE svg PUBLIC "-//W3C//DTD SVG 1.1//EN" "http://www.w3.org/Graphics/SVG/1.1/DTD/svg11.dtd">
<svg version="1.1" id="Layer_1" xmlns="http://www.w3.org/2000/svg" xmlns:xlink="http://www.w3.org/1999/xlink" x="0px" y="0px"
	 width="708.66px" height="708.66px" viewBox="0 0 708.66 708.66" enable-background="new 0 0 708.66 708.66" xml:space="preserve">
<g>
	<g>
		<g>
			<path fill="#EEA320" d="M468.606,462.121c1.19,1.19,1.771,2.606,1.732,4.247c-0.035,1.646-0.646,3.064-1.837,4.255
				s-2.604,1.763-4.252,1.729c-1.642-0.036-3.059-0.652-4.25-1.836l-19.101-19.833l-7.13,6.818v8.814c0,1.611-0.579,3.013-1.735,4.2
				c-1.148,1.184-2.569,1.784-4.249,1.784c-1.605,0-3.01-0.601-4.196-1.784c-1.19-1.188-1.78-2.589-1.78-4.2v-62.124
				c0-1.68,0.59-3.097,1.78-4.249c1.187-1.156,2.591-1.731,4.196-1.731c1.68,0,3.101,0.575,4.249,1.731
				c1.156,1.152,1.735,2.569,1.735,4.249v36.729l20.833-19.88c1.184-1.19,2.604-1.753,4.249-1.68c1.645,0.071,3.059,0.7,4.253,1.889
				c1.19,1.19,1.745,2.604,1.676,4.253c-0.07,1.638-0.698,3.023-1.889,4.141l-13.274,12.747L468.606,462.121z"/>
			<path fill="#EEA320" d="M557.494,460.394c1.68,0,3.097,0.595,4.249,1.785c1.152,1.189,1.731,2.584,1.731,4.195
				c0,1.681-0.579,3.093-1.731,4.251c-1.152,1.15-2.569,1.728-4.249,1.728h-2.622c-2.381,0-4.615-0.452-6.718-1.361
				c-2.098-0.906-3.935-2.135-5.513-3.673c-1.574-1.542-2.817-3.355-3.726-5.455c-0.907-2.103-1.357-4.34-1.357-6.722v-23.188
				h-3.572c-1.613,0-3.01-0.592-4.2-1.784c-1.187-1.188-1.78-2.585-1.78-4.2c0-1.674,0.594-3.11,1.78-4.3
				c1.19-1.187,2.587-1.789,4.2-1.789h3.572v-15.109c0-1.676,0.59-3.093,1.78-4.249c1.19-1.151,2.584-1.733,4.196-1.733
				c1.68,0,3.114,0.582,4.302,1.733c1.194,1.156,1.784,2.573,1.784,4.249v15.109h8.501c1.684,0,3.094,0.603,4.257,1.789
				c1.148,1.189,1.728,2.626,1.728,4.3c0,1.615-0.579,3.012-1.728,4.2c-1.163,1.192-2.573,1.784-4.257,1.784h-8.501v23.188
				c0,1.472,0.506,2.717,1.525,3.731c1.009,1.016,2.252,1.521,3.726,1.521H557.494z"/>
			<path fill="#EEA320" d="M584.447,400.522c-1.152-1.151-2.565-1.733-4.245-1.733c-1.613,0-3.013,0.582-4.2,1.733
				c-1.19,1.156-1.784,2.573-1.784,4.249v34.799v11.649v15.154c0,3.301,2.678,5.979,5.984,5.979c3.303,0,5.98-2.678,5.98-5.979
				V451.22V439.57v-34.799C586.183,403.096,585.604,401.679,584.447,400.522z"/>
			<path fill="#EEA320" d="M511.4,456.606c-2.702,3.256-6.508,5.346-10.704,5.882c-4.435,0.565-8.809-0.616-12.335-3.345
				c-2.629-2.019-4.546-4.723-5.594-7.793h2.965c-0.004-0.011-0.015-0.021-0.021-0.035h29.237c0.23,0.009,0.433,0.035,0.677,0.035
				c1.044,0.003,1.938-0.056,2.759-0.15c5.509-0.683,6.431-4.589,6.501-6.805c-0.039-0.611-0.039-1.229-0.119-1.833
				c-0.349-2.751-1.121-5.346-2.23-7.737c-0.343-0.748-0.713-1.49-1.125-2.213c-0.143-0.241-0.324-0.441-0.471-0.678
				c-0.43-0.679-0.887-1.333-1.362-1.973c-1.169-1.574-2.433-3.05-3.903-4.322c-2.272-1.962-4.874-3.516-7.803-4.646
				c-2.926-1.142-6.013-1.711-9.245-1.711c-3.579,0-6.959,0.696-10.129,2.07c-2.573,1.122-4.867,2.582-6.896,4.336
				c-0.401,0.343-0.789,0.704-1.177,1.066c-0.059,0.058-0.129,0.117-0.188,0.177c-0.027,0.028-0.052,0.06-0.084,0.089
				c-0.883,0.859-1.731,1.772-2.499,2.766c-4.313,5.584-6.19,12.515-5.29,19.513c0.897,7.004,4.466,13.231,10.056,17.546
				c4.675,3.604,10.282,5.508,16.085,5.508c1.138,0,2.283-0.075,3.428-0.223c6.651-0.847,12.674-4.157,16.947-9.307
				c1.715-2.067,1.436-5.129-0.632-6.847C516.184,454.259,513.118,454.545,511.4,456.606z M490.878,433.492
				c2.273-1.547,4.856-2.324,7.748-2.324c2.895,0,5.491,0.777,7.796,2.324c2.312,1.552,4.05,3.564,5.22,6.047h-25.931
				C486.881,437.057,488.602,435.044,490.878,433.492z"/>
		</g>
		<g>
			<path fill="#A26828" d="M221.727,419.881c1.608,0,3.004,0.581,4.198,1.738c1.188,1.15,1.784,2.57,1.784,4.244
				c0,1.683-0.597,3.099-1.784,4.249c-1.194,1.159-2.59,1.735-4.198,1.735h-7.767c-1.329,0-2.587,0.523-3.776,1.571
				c-1.047,1.197-1.575,2.45-1.575,3.777v29.178c0,1.609-0.576,3.011-1.731,4.194c-1.154,1.188-2.572,1.784-4.249,1.784
				c-1.61,0-3.008-0.597-4.197-1.784c-1.194-1.184-1.786-2.585-1.786-4.194v-29.178c0-2.305,0.435-4.528,1.316-6.658
				c0.871-2.137,2.111-4.005,3.72-5.617c1.611-1.609,3.479-2.85,5.616-3.724c2.132-0.875,4.354-1.316,6.662-1.316H221.727z"/>
			<path fill="#A26828" d="M258.982,419.355c3.706,0,7.169,0.707,10.391,2.104c3.215,1.4,6.012,3.292,8.391,5.665
				c2.381,2.381,4.27,5.179,5.667,8.398c1.4,3.221,2.098,6.683,2.098,10.389c0,3.638-0.698,7.066-2.098,10.28
				c-1.397,3.219-3.286,6.018-5.667,8.398c-2.379,2.378-5.176,4.267-8.391,5.665c-3.221,1.398-6.685,2.098-10.391,2.098
				c-3.64,0-7.07-0.699-10.286-2.098c-3.217-1.398-6.018-3.287-8.398-5.665c-2.376-2.381-4.263-5.18-5.667-8.398
				c-1.396-3.214-2.095-6.643-2.095-10.28v-41.663c0-1.681,0.592-3.099,1.782-4.251c1.189-1.153,2.585-1.733,4.198-1.733
				c1.678,0,3.097,0.58,4.251,1.733c1.15,1.152,1.731,2.57,1.731,4.251v19.416c2.097-1.404,4.372-2.467,6.817-3.202
				C253.77,419.724,256.318,419.355,258.982,419.355z M258.982,460.386c2.027,0,3.916-0.377,5.663-1.148
				c1.749-0.77,3.271-1.805,4.565-3.095c1.295-1.296,2.327-2.833,3.101-4.617c0.765-1.79,1.148-3.659,1.148-5.614
				c0-2.028-0.384-3.914-1.148-5.669c-0.773-1.749-1.805-3.271-3.101-4.563c-1.293-1.294-2.816-2.327-4.565-3.096
				c-1.748-0.771-3.636-1.155-5.663-1.155c-1.96,0-3.833,0.384-5.614,1.155c-1.788,0.769-3.327,1.802-4.619,3.096
				c-1.297,1.291-2.323,2.813-3.098,4.563c-0.77,1.755-1.151,3.641-1.151,5.669c0,1.955,0.381,3.824,1.151,5.614
				c0.775,1.784,1.801,3.321,3.098,4.617c1.292,1.29,2.832,2.325,4.619,3.095C255.148,460.009,257.021,460.386,258.982,460.386z"/>
			<path fill="#A26828" d="M316.171,419.355c3.708,0,7.175,0.707,10.391,2.104c3.215,1.4,6.014,3.292,8.393,5.665
				c2.374,2.381,4.272,5.179,5.667,8.398c1.398,3.221,2.102,6.683,2.102,10.389v20.463c0,1.609-0.599,3.011-1.788,4.194
				c-1.188,1.188-2.622,1.784-4.303,1.784c-1.398,0-2.624-0.42-3.673-1.259c-1.046-0.839-1.75-1.889-2.099-3.147
				c-2.098,1.4-4.39,2.482-6.871,3.255c-2.484,0.77-5.09,1.151-7.819,1.151c-3.643,0-7.063-0.699-10.284-2.098
				c-3.223-1.398-6.021-3.287-8.395-5.665c-2.378-2.381-4.27-5.18-5.665-8.398c-1.405-3.214-2.105-6.643-2.105-10.28
				c0-3.706,0.7-7.168,2.105-10.389c1.395-3.22,3.287-6.018,5.665-8.398c2.374-2.373,5.172-4.265,8.395-5.665
				C309.108,420.063,312.528,419.355,316.171,419.355z M316.171,460.386c2.027,0,3.916-0.377,5.667-1.148
				c1.75-0.77,3.27-1.805,4.565-3.095c1.292-1.296,2.327-2.833,3.094-4.617c0.773-1.79,1.157-3.659,1.157-5.614
				c0-2.028-0.384-3.914-1.157-5.669c-0.767-1.749-1.802-3.271-3.094-4.563c-1.295-1.294-2.815-2.327-4.565-3.096
				c-1.751-0.771-3.64-1.155-5.667-1.155c-1.96,0-3.828,0.384-5.614,1.155c-1.786,0.769-3.327,1.802-4.617,3.096
				c-1.295,1.291-2.324,2.813-3.095,4.563c-0.771,1.755-1.156,3.641-1.156,5.669c0,1.955,0.384,3.824,1.156,5.614
				c0.771,1.784,1.8,3.321,3.095,4.617c1.29,1.29,2.832,2.325,4.617,3.095C312.343,460.009,314.21,460.386,316.171,460.386z"/>
			<path fill="#A26828" d="M375.99,419.355c3.705,0,7.168,0.707,10.388,2.104c3.212,1.4,6.016,3.292,8.396,5.665
				c2.378,2.381,4.267,5.179,5.663,8.398c1.396,3.221,2.102,6.683,2.102,10.389v20.463c0,1.609-0.597,3.011-1.787,4.194
				c-1.191,1.188-2.622,1.784-4.302,1.784c-1.609,0-3.013-0.597-4.196-1.784c-1.191-1.184-1.788-2.585-1.788-4.194v-20.463
				c0-2.028-0.384-3.914-1.155-5.669c-0.769-1.749-1.798-3.271-3.09-4.563c-1.296-1.294-2.814-2.327-4.57-3.096
				c-1.746-0.771-3.635-1.155-5.66-1.155c-1.965,0-3.833,0.384-5.617,1.155c-1.784,0.769-3.324,1.802-4.615,3.096
				c-1.299,1.291-2.329,2.813-3.101,4.563c-0.771,1.755-1.152,3.641-1.152,5.669v20.463c0,1.609-0.576,3.011-1.735,4.194
				c-1.152,1.188-2.566,1.784-4.249,1.784c-1.607,0-3.002-0.597-4.196-1.784c-1.188-1.184-1.781-2.585-1.781-4.194v-20.463
				c0-3.706,0.698-7.168,2.098-10.389c1.396-3.22,3.286-6.018,5.667-8.398c2.377-2.373,5.174-4.265,8.396-5.665
				C368.921,420.063,372.35,419.355,375.99,419.355z"/>
			<path fill="#A26828" d="M185.385,399.434c-1.3-1.303-2.919-1.962-4.811-1.962c-1.817,0-3.42,0.656-4.757,1.955
				c-1.34,1.306-2.025,2.928-2.025,4.821v33.727c0,3.109-0.496,5.974-1.468,8.533c-0.975,2.551-2.329,4.755-4.033,6.557
				c-1.697,1.8-3.711,3.221-5.986,4.223c-4.534,2.003-10.138,1.997-14.737-0.001c-2.31-1.004-4.338-2.422-6.031-4.224
				c-1.708-1.803-3.064-4.01-4.035-6.555c-0.974-2.549-1.468-5.419-1.468-8.533v-33.727c0-1.889-0.662-3.509-1.966-4.814
				c-1.301-1.303-2.92-1.962-4.813-1.962c-1.819,0-3.416,0.656-4.753,1.955c-1.342,1.304-2.025,2.926-2.025,4.821v33.727
				c0,5.192,0.864,9.968,2.577,14.203c1.71,4.242,4.061,7.896,6.995,10.858c2.921,2.968,6.4,5.288,10.336,6.897
				c3.926,1.605,8.156,2.419,12.583,2.419c4.422,0,8.634-0.813,12.529-2.423c3.896-1.609,7.36-3.926,10.286-6.89
				c2.929-2.967,5.281-6.62,6.992-10.858c1.709-4.239,2.577-9.015,2.577-14.207v-33.727
				C187.351,402.357,186.688,400.737,185.385,399.434z"/>
		</g>
	</g>
	<g>
		<path fill="#A26828" d="M422.902,236.359h-53.814c-25.718,0-24.599,21.28-24.599,21.28v36.184
			c0,11.105-9.037,20.143-20.142,20.143c-11.108,0-20.146-9.037-20.146-20.143v-48.722c0-4.829-3.912-8.742-8.741-8.742
			c-4.828,0-8.741,3.913-8.741,8.742v48.722c0,20.746,16.879,37.623,37.627,37.623c20.746,0,37.626-16.877,37.626-37.623v-30.404
			c0.301-3.629,1.981-9.615,9.859-9.576h51.07c13.657,0,24.765,11.106,24.765,24.762c0,13.654-11.107,24.761-24.765,24.761h-2.359
			v0.007h-0.649c-4.827,0-8.737,3.913-8.737,8.737c0,4.822,3.91,8.734,8.737,8.734h0.649v0.008h2.359
			c23.295,0,42.248-18.951,42.248-42.248C465.15,255.31,446.197,236.359,422.902,236.359z"/>
		<path fill="#EEA320" d="M418.837,269.167h-30.003c-0.634,0-1.261,0.068-1.915,0.212c-4.143,0.82-7.15,4.481-7.15,8.705v17.803
			c0,30.55-24.854,55.407-55.4,55.407c-30.55,0-55.403-24.856-55.403-55.407v-50.7c0-4.896-3.982-8.88-8.88-8.88
			c-4.896,0-8.882,3.984-8.882,8.88v50.7c0,40.339,32.822,73.159,73.165,73.159c40.339,0,73.159-32.82,73.159-73.159l-0.002-5.503
			c0.095-1.426,0.77-3.126,3.462-3.126h17.85c4.989,0,9.045-4.059,9.045-9.049C427.882,273.222,423.826,269.167,418.837,269.167z"/>
	</g>
</g>
</svg>
